<mxfile host="app.diagrams.net" agent="Mozilla/5.0 (Macintosh; Intel Mac OS X 10_15_7) AppleWebKit/537.36 (KHTML, like Gecko) Chrome/136.0.0.0 Safari/537.36" version="27.1.5">
  <diagram name="第 1 页" id="actc35agtgdjfvtxO-NS">
    <mxGraphModel dx="2376" dy="1325" grid="1" gridSize="10" guides="1" tooltips="1" connect="1" arrows="1" fold="1" page="1" pageScale="1" pageWidth="827" pageHeight="1169" math="0" shadow="0">
      <root>
        <mxCell id="0" />
        <mxCell id="1" parent="0" />
        <mxCell id="tINzB2LHruF0UwKxHcfC-1" value="View" style="swimlane;fontStyle=1;align=center;verticalAlign=top;childLayout=stackLayout;horizontal=1;startSize=38;horizontalStack=0;resizeParent=1;resizeParentMax=0;resizeLast=0;collapsible=0;marginBottom=0;" vertex="1" parent="1">
          <mxGeometry x="593" y="922" width="60" height="57" as="geometry" />
        </mxCell>
        <mxCell id="tINzB2LHruF0UwKxHcfC-2" style="line;strokeWidth=1;fillColor=none;align=left;verticalAlign=middle;spacingTop=-1;spacingLeft=3;spacingRight=3;rotatable=0;labelPosition=right;points=[];portConstraint=eastwest;strokeColor=inherit;" vertex="1" parent="tINzB2LHruF0UwKxHcfC-1">
          <mxGeometry y="38" width="60" height="19" as="geometry" />
        </mxCell>
        <mxCell id="tINzB2LHruF0UwKxHcfC-3" value="TemplateView" style="swimlane;fontStyle=1;align=center;verticalAlign=top;childLayout=stackLayout;horizontal=1;startSize=38;horizontalStack=0;resizeParent=1;resizeParentMax=0;resizeLast=0;collapsible=0;marginBottom=0;" vertex="1" parent="1">
          <mxGeometry x="703" y="922" width="129" height="57" as="geometry" />
        </mxCell>
        <mxCell id="tINzB2LHruF0UwKxHcfC-4" style="line;strokeWidth=1;fillColor=none;align=left;verticalAlign=middle;spacingTop=-1;spacingLeft=3;spacingRight=3;rotatable=0;labelPosition=right;points=[];portConstraint=eastwest;strokeColor=inherit;" vertex="1" parent="tINzB2LHruF0UwKxHcfC-3">
          <mxGeometry y="38" width="129" height="19" as="geometry" />
        </mxCell>
        <mxCell id="tINzB2LHruF0UwKxHcfC-5" value="RedirectView" style="swimlane;fontStyle=1;align=center;verticalAlign=top;childLayout=stackLayout;horizontal=1;startSize=38;horizontalStack=0;resizeParent=1;resizeParentMax=0;resizeLast=0;collapsible=0;marginBottom=0;" vertex="1" parent="1">
          <mxGeometry x="883" y="922" width="124" height="57" as="geometry" />
        </mxCell>
        <mxCell id="tINzB2LHruF0UwKxHcfC-6" style="line;strokeWidth=1;fillColor=none;align=left;verticalAlign=middle;spacingTop=-1;spacingLeft=3;spacingRight=3;rotatable=0;labelPosition=right;points=[];portConstraint=eastwest;strokeColor=inherit;" vertex="1" parent="tINzB2LHruF0UwKxHcfC-5">
          <mxGeometry y="38" width="124" height="19" as="geometry" />
        </mxCell>
        <mxCell id="tINzB2LHruF0UwKxHcfC-7" value="APIView" style="swimlane;fontStyle=1;align=center;verticalAlign=top;childLayout=stackLayout;horizontal=1;startSize=31.733333333333334;horizontalStack=0;resizeParent=1;resizeParentMax=0;resizeLast=0;collapsible=0;marginBottom=0;" vertex="1" parent="1">
          <mxGeometry x="516" y="626" width="215" height="231.73333333333335" as="geometry" />
        </mxCell>
        <mxCell id="tINzB2LHruF0UwKxHcfC-8" style="line;strokeWidth=1;fillColor=none;align=left;verticalAlign=middle;spacingTop=-1;spacingLeft=3;spacingRight=3;rotatable=0;labelPosition=right;points=[];portConstraint=eastwest;strokeColor=inherit;" vertex="1" parent="tINzB2LHruF0UwKxHcfC-7">
          <mxGeometry y="31.733333333333334" width="215" height="8" as="geometry" />
        </mxCell>
        <mxCell id="tINzB2LHruF0UwKxHcfC-9" value="+ as_view()" style="text;strokeColor=none;fillColor=none;align=left;verticalAlign=top;spacingLeft=4;spacingRight=4;overflow=hidden;rotatable=0;points=[[0,0.5],[1,0.5]];portConstraint=eastwest;" vertex="1" parent="tINzB2LHruF0UwKxHcfC-7">
          <mxGeometry y="39.733333333333334" width="215" height="32" as="geometry" />
        </mxCell>
        <mxCell id="tINzB2LHruF0UwKxHcfC-10" value="+ dispatch()" style="text;strokeColor=none;fillColor=none;align=left;verticalAlign=top;spacingLeft=4;spacingRight=4;overflow=hidden;rotatable=0;points=[[0,0.5],[1,0.5]];portConstraint=eastwest;" vertex="1" parent="tINzB2LHruF0UwKxHcfC-7">
          <mxGeometry y="71.73333333333333" width="215" height="32" as="geometry" />
        </mxCell>
        <mxCell id="tINzB2LHruF0UwKxHcfC-11" value="+ get_authenticators()" style="text;strokeColor=none;fillColor=none;align=left;verticalAlign=top;spacingLeft=4;spacingRight=4;overflow=hidden;rotatable=0;points=[[0,0.5],[1,0.5]];portConstraint=eastwest;" vertex="1" parent="tINzB2LHruF0UwKxHcfC-7">
          <mxGeometry y="103.73333333333333" width="215" height="32" as="geometry" />
        </mxCell>
        <mxCell id="tINzB2LHruF0UwKxHcfC-12" value="+ get_permissions()" style="text;strokeColor=none;fillColor=none;align=left;verticalAlign=top;spacingLeft=4;spacingRight=4;overflow=hidden;rotatable=0;points=[[0,0.5],[1,0.5]];portConstraint=eastwest;" vertex="1" parent="tINzB2LHruF0UwKxHcfC-7">
          <mxGeometry y="135.73333333333335" width="215" height="32" as="geometry" />
        </mxCell>
        <mxCell id="tINzB2LHruF0UwKxHcfC-13" value="+ get_throttles()" style="text;strokeColor=none;fillColor=none;align=left;verticalAlign=top;spacingLeft=4;spacingRight=4;overflow=hidden;rotatable=0;points=[[0,0.5],[1,0.5]];portConstraint=eastwest;" vertex="1" parent="tINzB2LHruF0UwKxHcfC-7">
          <mxGeometry y="167.73333333333335" width="215" height="32" as="geometry" />
        </mxCell>
        <mxCell id="tINzB2LHruF0UwKxHcfC-14" value="+ initial()" style="text;strokeColor=none;fillColor=none;align=left;verticalAlign=top;spacingLeft=4;spacingRight=4;overflow=hidden;rotatable=0;points=[[0,0.5],[1,0.5]];portConstraint=eastwest;" vertex="1" parent="tINzB2LHruF0UwKxHcfC-7">
          <mxGeometry y="199.73333333333335" width="215" height="32" as="geometry" />
        </mxCell>
        <mxCell id="tINzB2LHruF0UwKxHcfC-15" value="GenericAPIView" style="swimlane;fontStyle=1;align=center;verticalAlign=top;childLayout=stackLayout;horizontal=1;startSize=32.92307692307692;horizontalStack=0;resizeParent=1;resizeParentMax=0;resizeLast=0;collapsible=0;marginBottom=0;" vertex="1" parent="1">
          <mxGeometry x="1009" y="354" width="241" height="205.9230769230769" as="geometry" />
        </mxCell>
        <mxCell id="tINzB2LHruF0UwKxHcfC-16" style="line;strokeWidth=1;fillColor=none;align=left;verticalAlign=middle;spacingTop=-1;spacingLeft=3;spacingRight=3;rotatable=0;labelPosition=right;points=[];portConstraint=eastwest;strokeColor=inherit;" vertex="1" parent="tINzB2LHruF0UwKxHcfC-15">
          <mxGeometry y="32.92307692307692" width="241" height="8" as="geometry" />
        </mxCell>
        <mxCell id="tINzB2LHruF0UwKxHcfC-17" value="+ get_queryset()" style="text;strokeColor=none;fillColor=none;align=left;verticalAlign=top;spacingLeft=4;spacingRight=4;overflow=hidden;rotatable=0;points=[[0,0.5],[1,0.5]];portConstraint=eastwest;" vertex="1" parent="tINzB2LHruF0UwKxHcfC-15">
          <mxGeometry y="40.92307692307692" width="241" height="33" as="geometry" />
        </mxCell>
        <mxCell id="tINzB2LHruF0UwKxHcfC-18" value="+ get_serializer()" style="text;strokeColor=none;fillColor=none;align=left;verticalAlign=top;spacingLeft=4;spacingRight=4;overflow=hidden;rotatable=0;points=[[0,0.5],[1,0.5]];portConstraint=eastwest;" vertex="1" parent="tINzB2LHruF0UwKxHcfC-15">
          <mxGeometry y="73.92307692307692" width="241" height="33" as="geometry" />
        </mxCell>
        <mxCell id="tINzB2LHruF0UwKxHcfC-19" value="+ get_object()" style="text;strokeColor=none;fillColor=none;align=left;verticalAlign=top;spacingLeft=4;spacingRight=4;overflow=hidden;rotatable=0;points=[[0,0.5],[1,0.5]];portConstraint=eastwest;" vertex="1" parent="tINzB2LHruF0UwKxHcfC-15">
          <mxGeometry y="106.92307692307692" width="241" height="33" as="geometry" />
        </mxCell>
        <mxCell id="tINzB2LHruF0UwKxHcfC-20" value="+ filter_queryset()" style="text;strokeColor=none;fillColor=none;align=left;verticalAlign=top;spacingLeft=4;spacingRight=4;overflow=hidden;rotatable=0;points=[[0,0.5],[1,0.5]];portConstraint=eastwest;" vertex="1" parent="tINzB2LHruF0UwKxHcfC-15">
          <mxGeometry y="139.9230769230769" width="241" height="33" as="geometry" />
        </mxCell>
        <mxCell id="tINzB2LHruF0UwKxHcfC-21" value="+ paginate_queryset()" style="text;strokeColor=none;fillColor=none;align=left;verticalAlign=top;spacingLeft=4;spacingRight=4;overflow=hidden;rotatable=0;points=[[0,0.5],[1,0.5]];portConstraint=eastwest;" vertex="1" parent="tINzB2LHruF0UwKxHcfC-15">
          <mxGeometry y="172.9230769230769" width="241" height="33" as="geometry" />
        </mxCell>
        <mxCell id="tINzB2LHruF0UwKxHcfC-22" value="ViewSetMixin" style="swimlane;fontStyle=1;align=center;verticalAlign=top;childLayout=stackLayout;horizontal=1;startSize=36.888888888888886;horizontalStack=0;resizeParent=1;resizeParentMax=0;resizeLast=0;collapsible=0;marginBottom=0;" vertex="1" parent="1">
          <mxGeometry x="117" y="378" width="224" height="155.88888888888889" as="geometry" />
        </mxCell>
        <mxCell id="tINzB2LHruF0UwKxHcfC-23" style="line;strokeWidth=1;fillColor=none;align=left;verticalAlign=middle;spacingTop=-1;spacingLeft=3;spacingRight=3;rotatable=0;labelPosition=right;points=[];portConstraint=eastwest;strokeColor=inherit;" vertex="1" parent="tINzB2LHruF0UwKxHcfC-22">
          <mxGeometry y="36.888888888888886" width="224" height="8" as="geometry" />
        </mxCell>
        <mxCell id="tINzB2LHruF0UwKxHcfC-24" value="+ as_view()" style="text;strokeColor=none;fillColor=none;align=left;verticalAlign=top;spacingLeft=4;spacingRight=4;overflow=hidden;rotatable=0;points=[[0,0.5],[1,0.5]];portConstraint=eastwest;" vertex="1" parent="tINzB2LHruF0UwKxHcfC-22">
          <mxGeometry y="44.888888888888886" width="224" height="37" as="geometry" />
        </mxCell>
        <mxCell id="tINzB2LHruF0UwKxHcfC-25" value="+ initialize_request()" style="text;strokeColor=none;fillColor=none;align=left;verticalAlign=top;spacingLeft=4;spacingRight=4;overflow=hidden;rotatable=0;points=[[0,0.5],[1,0.5]];portConstraint=eastwest;" vertex="1" parent="tINzB2LHruF0UwKxHcfC-22">
          <mxGeometry y="81.88888888888889" width="224" height="37" as="geometry" />
        </mxCell>
        <mxCell id="tINzB2LHruF0UwKxHcfC-26" value="+ reverse_action()" style="text;strokeColor=none;fillColor=none;align=left;verticalAlign=top;spacingLeft=4;spacingRight=4;overflow=hidden;rotatable=0;points=[[0,0.5],[1,0.5]];portConstraint=eastwest;" vertex="1" parent="tINzB2LHruF0UwKxHcfC-22">
          <mxGeometry y="118.88888888888889" width="224" height="37" as="geometry" />
        </mxCell>
        <mxCell id="tINzB2LHruF0UwKxHcfC-27" value="ViewSet" style="swimlane;fontStyle=1;align=center;verticalAlign=top;childLayout=stackLayout;horizontal=1;startSize=38;horizontalStack=0;resizeParent=1;resizeParentMax=0;resizeLast=0;collapsible=0;marginBottom=0;" vertex="1" parent="1">
          <mxGeometry x="20" y="187" width="84" height="57" as="geometry" />
        </mxCell>
        <mxCell id="tINzB2LHruF0UwKxHcfC-28" style="line;strokeWidth=1;fillColor=none;align=left;verticalAlign=middle;spacingTop=-1;spacingLeft=3;spacingRight=3;rotatable=0;labelPosition=right;points=[];portConstraint=eastwest;strokeColor=inherit;" vertex="1" parent="tINzB2LHruF0UwKxHcfC-27">
          <mxGeometry y="38" width="84" height="19" as="geometry" />
        </mxCell>
        <mxCell id="tINzB2LHruF0UwKxHcfC-29" value="GenericViewSet" style="swimlane;fontStyle=1;align=center;verticalAlign=top;childLayout=stackLayout;horizontal=1;startSize=38;horizontalStack=0;resizeParent=1;resizeParentMax=0;resizeLast=0;collapsible=0;marginBottom=0;" vertex="1" parent="1">
          <mxGeometry x="199" y="187" width="142" height="57" as="geometry" />
        </mxCell>
        <mxCell id="tINzB2LHruF0UwKxHcfC-30" style="line;strokeWidth=1;fillColor=none;align=left;verticalAlign=middle;spacingTop=-1;spacingLeft=3;spacingRight=3;rotatable=0;labelPosition=right;points=[];portConstraint=eastwest;strokeColor=inherit;" vertex="1" parent="tINzB2LHruF0UwKxHcfC-29">
          <mxGeometry y="38" width="142" height="19" as="geometry" />
        </mxCell>
        <mxCell id="tINzB2LHruF0UwKxHcfC-31" value="ReadOnlyModelViewSet" style="swimlane;fontStyle=1;align=center;verticalAlign=top;childLayout=stackLayout;horizontal=1;startSize=38;horizontalStack=0;resizeParent=1;resizeParentMax=0;resizeLast=0;collapsible=0;marginBottom=0;" vertex="1" parent="1">
          <mxGeometry x="21" y="20" width="199" height="57" as="geometry" />
        </mxCell>
        <mxCell id="tINzB2LHruF0UwKxHcfC-32" style="line;strokeWidth=1;fillColor=none;align=left;verticalAlign=middle;spacingTop=-1;spacingLeft=3;spacingRight=3;rotatable=0;labelPosition=right;points=[];portConstraint=eastwest;strokeColor=inherit;" vertex="1" parent="tINzB2LHruF0UwKxHcfC-31">
          <mxGeometry y="38" width="199" height="19" as="geometry" />
        </mxCell>
        <mxCell id="tINzB2LHruF0UwKxHcfC-33" value="ModelViewSet" style="swimlane;fontStyle=1;align=center;verticalAlign=top;childLayout=stackLayout;horizontal=1;startSize=38;horizontalStack=0;resizeParent=1;resizeParentMax=0;resizeLast=0;collapsible=0;marginBottom=0;" vertex="1" parent="1">
          <mxGeometry x="1105" y="20" width="128" height="57" as="geometry" />
        </mxCell>
        <mxCell id="tINzB2LHruF0UwKxHcfC-34" style="line;strokeWidth=1;fillColor=none;align=left;verticalAlign=middle;spacingTop=-1;spacingLeft=3;spacingRight=3;rotatable=0;labelPosition=right;points=[];portConstraint=eastwest;strokeColor=inherit;" vertex="1" parent="tINzB2LHruF0UwKxHcfC-33">
          <mxGeometry y="38" width="128" height="19" as="geometry" />
        </mxCell>
        <mxCell id="tINzB2LHruF0UwKxHcfC-35" value="CreateModelMixin" style="swimlane;fontStyle=1;align=center;verticalAlign=top;childLayout=stackLayout;horizontal=1;startSize=40.57142857142857;horizontalStack=0;resizeParent=1;resizeParentMax=0;resizeLast=0;collapsible=0;marginBottom=0;" vertex="1" parent="1">
          <mxGeometry x="2137" y="154" width="228" height="130.57142857142856" as="geometry" />
        </mxCell>
        <mxCell id="tINzB2LHruF0UwKxHcfC-36" style="line;strokeWidth=1;fillColor=none;align=left;verticalAlign=middle;spacingTop=-1;spacingLeft=3;spacingRight=3;rotatable=0;labelPosition=right;points=[];portConstraint=eastwest;strokeColor=inherit;" vertex="1" parent="tINzB2LHruF0UwKxHcfC-35">
          <mxGeometry y="40.57142857142857" width="228" height="8" as="geometry" />
        </mxCell>
        <mxCell id="tINzB2LHruF0UwKxHcfC-37" value="+ create()" style="text;strokeColor=none;fillColor=none;align=left;verticalAlign=top;spacingLeft=4;spacingRight=4;overflow=hidden;rotatable=0;points=[[0,0.5],[1,0.5]];portConstraint=eastwest;" vertex="1" parent="tINzB2LHruF0UwKxHcfC-35">
          <mxGeometry y="48.57142857142857" width="228" height="41" as="geometry" />
        </mxCell>
        <mxCell id="tINzB2LHruF0UwKxHcfC-38" value="+ perform_create()" style="text;strokeColor=none;fillColor=none;align=left;verticalAlign=top;spacingLeft=4;spacingRight=4;overflow=hidden;rotatable=0;points=[[0,0.5],[1,0.5]];portConstraint=eastwest;" vertex="1" parent="tINzB2LHruF0UwKxHcfC-35">
          <mxGeometry y="89.57142857142857" width="228" height="41" as="geometry" />
        </mxCell>
        <mxCell id="tINzB2LHruF0UwKxHcfC-39" value="ListModelMixin" style="swimlane;fontStyle=1;align=center;verticalAlign=top;childLayout=stackLayout;horizontal=1;startSize=47.2;horizontalStack=0;resizeParent=1;resizeParentMax=0;resizeLast=0;collapsible=0;marginBottom=0;" vertex="1" parent="1">
          <mxGeometry x="1932" y="166" width="135" height="102.2" as="geometry" />
        </mxCell>
        <mxCell id="tINzB2LHruF0UwKxHcfC-40" style="line;strokeWidth=1;fillColor=none;align=left;verticalAlign=middle;spacingTop=-1;spacingLeft=3;spacingRight=3;rotatable=0;labelPosition=right;points=[];portConstraint=eastwest;strokeColor=inherit;" vertex="1" parent="tINzB2LHruF0UwKxHcfC-39">
          <mxGeometry y="47.2" width="135" height="8" as="geometry" />
        </mxCell>
        <mxCell id="tINzB2LHruF0UwKxHcfC-41" value="+ list()" style="text;strokeColor=none;fillColor=none;align=left;verticalAlign=top;spacingLeft=4;spacingRight=4;overflow=hidden;rotatable=0;points=[[0,0.5],[1,0.5]];portConstraint=eastwest;" vertex="1" parent="tINzB2LHruF0UwKxHcfC-39">
          <mxGeometry y="55.2" width="135" height="47" as="geometry" />
        </mxCell>
        <mxCell id="tINzB2LHruF0UwKxHcfC-42" value="RetrieveModelMixin" style="swimlane;fontStyle=1;align=center;verticalAlign=top;childLayout=stackLayout;horizontal=1;startSize=47.2;horizontalStack=0;resizeParent=1;resizeParentMax=0;resizeLast=0;collapsible=0;marginBottom=0;" vertex="1" parent="1">
          <mxGeometry x="695" y="402" width="180" height="102.2" as="geometry" />
        </mxCell>
        <mxCell id="tINzB2LHruF0UwKxHcfC-43" style="line;strokeWidth=1;fillColor=none;align=left;verticalAlign=middle;spacingTop=-1;spacingLeft=3;spacingRight=3;rotatable=0;labelPosition=right;points=[];portConstraint=eastwest;strokeColor=inherit;" vertex="1" parent="tINzB2LHruF0UwKxHcfC-42">
          <mxGeometry y="47.2" width="180" height="8" as="geometry" />
        </mxCell>
        <mxCell id="tINzB2LHruF0UwKxHcfC-44" value="+ retrieve()" style="text;strokeColor=none;fillColor=none;align=left;verticalAlign=top;spacingLeft=4;spacingRight=4;overflow=hidden;rotatable=0;points=[[0,0.5],[1,0.5]];portConstraint=eastwest;" vertex="1" parent="tINzB2LHruF0UwKxHcfC-42">
          <mxGeometry y="55.2" width="180" height="47" as="geometry" />
        </mxCell>
        <mxCell id="tINzB2LHruF0UwKxHcfC-45" value="UpdateModelMixin" style="swimlane;fontStyle=1;align=center;verticalAlign=top;childLayout=stackLayout;horizontal=1;startSize=36.888888888888886;horizontalStack=0;resizeParent=1;resizeParentMax=0;resizeLast=0;collapsible=0;marginBottom=0;" vertex="1" parent="1">
          <mxGeometry x="1300" y="378" width="234" height="155.88888888888889" as="geometry" />
        </mxCell>
        <mxCell id="tINzB2LHruF0UwKxHcfC-46" style="line;strokeWidth=1;fillColor=none;align=left;verticalAlign=middle;spacingTop=-1;spacingLeft=3;spacingRight=3;rotatable=0;labelPosition=right;points=[];portConstraint=eastwest;strokeColor=inherit;" vertex="1" parent="tINzB2LHruF0UwKxHcfC-45">
          <mxGeometry y="36.888888888888886" width="234" height="8" as="geometry" />
        </mxCell>
        <mxCell id="tINzB2LHruF0UwKxHcfC-47" value="+ update()" style="text;strokeColor=none;fillColor=none;align=left;verticalAlign=top;spacingLeft=4;spacingRight=4;overflow=hidden;rotatable=0;points=[[0,0.5],[1,0.5]];portConstraint=eastwest;" vertex="1" parent="tINzB2LHruF0UwKxHcfC-45">
          <mxGeometry y="44.888888888888886" width="234" height="37" as="geometry" />
        </mxCell>
        <mxCell id="tINzB2LHruF0UwKxHcfC-48" value="+ partial_update()" style="text;strokeColor=none;fillColor=none;align=left;verticalAlign=top;spacingLeft=4;spacingRight=4;overflow=hidden;rotatable=0;points=[[0,0.5],[1,0.5]];portConstraint=eastwest;" vertex="1" parent="tINzB2LHruF0UwKxHcfC-45">
          <mxGeometry y="81.88888888888889" width="234" height="37" as="geometry" />
        </mxCell>
        <mxCell id="tINzB2LHruF0UwKxHcfC-49" value="+ perform_update()" style="text;strokeColor=none;fillColor=none;align=left;verticalAlign=top;spacingLeft=4;spacingRight=4;overflow=hidden;rotatable=0;points=[[0,0.5],[1,0.5]];portConstraint=eastwest;" vertex="1" parent="tINzB2LHruF0UwKxHcfC-45">
          <mxGeometry y="118.88888888888889" width="234" height="37" as="geometry" />
        </mxCell>
        <mxCell id="tINzB2LHruF0UwKxHcfC-50" value="DestroyModelMixin" style="swimlane;fontStyle=1;align=center;verticalAlign=top;childLayout=stackLayout;horizontal=1;startSize=40.57142857142857;horizontalStack=0;resizeParent=1;resizeParentMax=0;resizeLast=0;collapsible=0;marginBottom=0;" vertex="1" parent="1">
          <mxGeometry x="1584" y="390" width="239" height="130.57142857142856" as="geometry" />
        </mxCell>
        <mxCell id="tINzB2LHruF0UwKxHcfC-51" style="line;strokeWidth=1;fillColor=none;align=left;verticalAlign=middle;spacingTop=-1;spacingLeft=3;spacingRight=3;rotatable=0;labelPosition=right;points=[];portConstraint=eastwest;strokeColor=inherit;" vertex="1" parent="tINzB2LHruF0UwKxHcfC-50">
          <mxGeometry y="40.57142857142857" width="239" height="8" as="geometry" />
        </mxCell>
        <mxCell id="tINzB2LHruF0UwKxHcfC-52" value="+ destroy()" style="text;strokeColor=none;fillColor=none;align=left;verticalAlign=top;spacingLeft=4;spacingRight=4;overflow=hidden;rotatable=0;points=[[0,0.5],[1,0.5]];portConstraint=eastwest;" vertex="1" parent="tINzB2LHruF0UwKxHcfC-50">
          <mxGeometry y="48.57142857142857" width="239" height="41" as="geometry" />
        </mxCell>
        <mxCell id="tINzB2LHruF0UwKxHcfC-53" value="+ perform_destroy()" style="text;strokeColor=none;fillColor=none;align=left;verticalAlign=top;spacingLeft=4;spacingRight=4;overflow=hidden;rotatable=0;points=[[0,0.5],[1,0.5]];portConstraint=eastwest;" vertex="1" parent="tINzB2LHruF0UwKxHcfC-50">
          <mxGeometry y="89.57142857142857" width="239" height="41" as="geometry" />
        </mxCell>
        <mxCell id="tINzB2LHruF0UwKxHcfC-54" value="CreateAPIView" style="swimlane;fontStyle=1;align=center;verticalAlign=top;childLayout=stackLayout;horizontal=1;startSize=38;horizontalStack=0;resizeParent=1;resizeParentMax=0;resizeLast=0;collapsible=0;marginBottom=0;" vertex="1" parent="1">
          <mxGeometry x="2110" y="20" width="134" height="57" as="geometry" />
        </mxCell>
        <mxCell id="tINzB2LHruF0UwKxHcfC-55" style="line;strokeWidth=1;fillColor=none;align=left;verticalAlign=middle;spacingTop=-1;spacingLeft=3;spacingRight=3;rotatable=0;labelPosition=right;points=[];portConstraint=eastwest;strokeColor=inherit;" vertex="1" parent="tINzB2LHruF0UwKxHcfC-54">
          <mxGeometry y="38" width="134" height="19" as="geometry" />
        </mxCell>
        <mxCell id="tINzB2LHruF0UwKxHcfC-56" value="ListAPIView" style="swimlane;fontStyle=1;align=center;verticalAlign=top;childLayout=stackLayout;horizontal=1;startSize=38;horizontalStack=0;resizeParent=1;resizeParentMax=0;resizeLast=0;collapsible=0;marginBottom=0;" vertex="1" parent="1">
          <mxGeometry x="2357" y="20" width="111" height="57" as="geometry" />
        </mxCell>
        <mxCell id="tINzB2LHruF0UwKxHcfC-57" style="line;strokeWidth=1;fillColor=none;align=left;verticalAlign=middle;spacingTop=-1;spacingLeft=3;spacingRight=3;rotatable=0;labelPosition=right;points=[];portConstraint=eastwest;strokeColor=inherit;" vertex="1" parent="tINzB2LHruF0UwKxHcfC-56">
          <mxGeometry y="38" width="111" height="19" as="geometry" />
        </mxCell>
        <mxCell id="tINzB2LHruF0UwKxHcfC-58" value="RetrieveAPIView" style="swimlane;fontStyle=1;align=center;verticalAlign=top;childLayout=stackLayout;horizontal=1;startSize=38;horizontalStack=0;resizeParent=1;resizeParentMax=0;resizeLast=0;collapsible=0;marginBottom=0;" vertex="1" parent="1">
          <mxGeometry x="411" y="187" width="148" height="57" as="geometry" />
        </mxCell>
        <mxCell id="tINzB2LHruF0UwKxHcfC-59" style="line;strokeWidth=1;fillColor=none;align=left;verticalAlign=middle;spacingTop=-1;spacingLeft=3;spacingRight=3;rotatable=0;labelPosition=right;points=[];portConstraint=eastwest;strokeColor=inherit;" vertex="1" parent="tINzB2LHruF0UwKxHcfC-58">
          <mxGeometry y="38" width="148" height="19" as="geometry" />
        </mxCell>
        <mxCell id="tINzB2LHruF0UwKxHcfC-60" value="DestroyAPIView" style="swimlane;fontStyle=1;align=center;verticalAlign=top;childLayout=stackLayout;horizontal=1;startSize=38;horizontalStack=0;resizeParent=1;resizeParentMax=0;resizeLast=0;collapsible=0;marginBottom=0;" vertex="1" parent="1">
          <mxGeometry x="609" y="187" width="141" height="57" as="geometry" />
        </mxCell>
        <mxCell id="tINzB2LHruF0UwKxHcfC-61" style="line;strokeWidth=1;fillColor=none;align=left;verticalAlign=middle;spacingTop=-1;spacingLeft=3;spacingRight=3;rotatable=0;labelPosition=right;points=[];portConstraint=eastwest;strokeColor=inherit;" vertex="1" parent="tINzB2LHruF0UwKxHcfC-60">
          <mxGeometry y="38" width="141" height="19" as="geometry" />
        </mxCell>
        <mxCell id="tINzB2LHruF0UwKxHcfC-62" value="UpdateAPIView" style="swimlane;fontStyle=1;align=center;verticalAlign=top;childLayout=stackLayout;horizontal=1;startSize=38;horizontalStack=0;resizeParent=1;resizeParentMax=0;resizeLast=0;collapsible=0;marginBottom=0;" vertex="1" parent="1">
          <mxGeometry x="801" y="187" width="138" height="57" as="geometry" />
        </mxCell>
        <mxCell id="tINzB2LHruF0UwKxHcfC-63" style="line;strokeWidth=1;fillColor=none;align=left;verticalAlign=middle;spacingTop=-1;spacingLeft=3;spacingRight=3;rotatable=0;labelPosition=right;points=[];portConstraint=eastwest;strokeColor=inherit;" vertex="1" parent="tINzB2LHruF0UwKxHcfC-62">
          <mxGeometry y="38" width="138" height="19" as="geometry" />
        </mxCell>
        <mxCell id="tINzB2LHruF0UwKxHcfC-64" value="ListCreateAPIView" style="swimlane;fontStyle=1;align=center;verticalAlign=top;childLayout=stackLayout;horizontal=1;startSize=38;horizontalStack=0;resizeParent=1;resizeParentMax=0;resizeLast=0;collapsible=0;marginBottom=0;" vertex="1" parent="1">
          <mxGeometry x="2518" y="20" width="161" height="57" as="geometry" />
        </mxCell>
        <mxCell id="tINzB2LHruF0UwKxHcfC-65" style="line;strokeWidth=1;fillColor=none;align=left;verticalAlign=middle;spacingTop=-1;spacingLeft=3;spacingRight=3;rotatable=0;labelPosition=right;points=[];portConstraint=eastwest;strokeColor=inherit;" vertex="1" parent="tINzB2LHruF0UwKxHcfC-64">
          <mxGeometry y="38" width="161" height="19" as="geometry" />
        </mxCell>
        <mxCell id="tINzB2LHruF0UwKxHcfC-66" value="RetrieveUpdateAPIView" style="swimlane;fontStyle=1;align=center;verticalAlign=top;childLayout=stackLayout;horizontal=1;startSize=38;horizontalStack=0;resizeParent=1;resizeParentMax=0;resizeLast=0;collapsible=0;marginBottom=0;" vertex="1" parent="1">
          <mxGeometry x="988" y="187" width="201" height="57" as="geometry" />
        </mxCell>
        <mxCell id="tINzB2LHruF0UwKxHcfC-67" style="line;strokeWidth=1;fillColor=none;align=left;verticalAlign=middle;spacingTop=-1;spacingLeft=3;spacingRight=3;rotatable=0;labelPosition=right;points=[];portConstraint=eastwest;strokeColor=inherit;" vertex="1" parent="tINzB2LHruF0UwKxHcfC-66">
          <mxGeometry y="38" width="201" height="19" as="geometry" />
        </mxCell>
        <mxCell id="tINzB2LHruF0UwKxHcfC-68" value="RetrieveDestroyAPIView" style="swimlane;fontStyle=1;align=center;verticalAlign=top;childLayout=stackLayout;horizontal=1;startSize=38;horizontalStack=0;resizeParent=1;resizeParentMax=0;resizeLast=0;collapsible=0;marginBottom=0;" vertex="1" parent="1">
          <mxGeometry x="1269" y="187" width="205" height="57" as="geometry" />
        </mxCell>
        <mxCell id="tINzB2LHruF0UwKxHcfC-69" style="line;strokeWidth=1;fillColor=none;align=left;verticalAlign=middle;spacingTop=-1;spacingLeft=3;spacingRight=3;rotatable=0;labelPosition=right;points=[];portConstraint=eastwest;strokeColor=inherit;" vertex="1" parent="tINzB2LHruF0UwKxHcfC-68">
          <mxGeometry y="38" width="205" height="19" as="geometry" />
        </mxCell>
        <mxCell id="tINzB2LHruF0UwKxHcfC-70" value="RetrieveUpdateDestroyAPIView" style="swimlane;fontStyle=1;align=center;verticalAlign=top;childLayout=stackLayout;horizontal=1;startSize=38;horizontalStack=0;resizeParent=1;resizeParentMax=0;resizeLast=0;collapsible=0;marginBottom=0;" vertex="1" parent="1">
          <mxGeometry x="1584" y="187" width="259" height="57" as="geometry" />
        </mxCell>
        <mxCell id="tINzB2LHruF0UwKxHcfC-71" style="line;strokeWidth=1;fillColor=none;align=left;verticalAlign=middle;spacingTop=-1;spacingLeft=3;spacingRight=3;rotatable=0;labelPosition=right;points=[];portConstraint=eastwest;strokeColor=inherit;" vertex="1" parent="tINzB2LHruF0UwKxHcfC-70">
          <mxGeometry y="38" width="259" height="19" as="geometry" />
        </mxCell>
        <mxCell id="tINzB2LHruF0UwKxHcfC-72" value="" style="curved=1;startArrow=block;startSize=16;startFill=0;endArrow=none;exitX=0.5;exitY=0;entryX=0.5;entryY=1;rounded=0;" edge="1" parent="1" source="tINzB2LHruF0UwKxHcfC-1" target="tINzB2LHruF0UwKxHcfC-7">
          <mxGeometry relative="1" as="geometry">
            <Array as="points" />
          </mxGeometry>
        </mxCell>
        <mxCell id="tINzB2LHruF0UwKxHcfC-73" value="" style="curved=1;startArrow=block;startSize=16;startFill=0;endArrow=none;exitX=1;exitY=0.37;entryX=0.5;entryY=1;rounded=0;" edge="1" parent="1" source="tINzB2LHruF0UwKxHcfC-7" target="tINzB2LHruF0UwKxHcfC-15">
          <mxGeometry relative="1" as="geometry">
            <Array as="points">
              <mxPoint x="1129" y="601" />
            </Array>
          </mxGeometry>
        </mxCell>
        <mxCell id="tINzB2LHruF0UwKxHcfC-74" value="" style="curved=1;startArrow=block;startSize=16;startFill=0;endArrow=none;exitX=0.02;exitY=0;entryX=0.5;entryY=1;rounded=0;" edge="1" parent="1" source="tINzB2LHruF0UwKxHcfC-22" target="tINzB2LHruF0UwKxHcfC-27">
          <mxGeometry relative="1" as="geometry">
            <Array as="points">
              <mxPoint x="62" y="329" />
            </Array>
          </mxGeometry>
        </mxCell>
        <mxCell id="tINzB2LHruF0UwKxHcfC-75" value="" style="curved=1;startArrow=block;startSize=16;startFill=0;endArrow=none;exitX=0;exitY=0.38;entryX=0.6;entryY=1;rounded=0;" edge="1" parent="1" source="tINzB2LHruF0UwKxHcfC-7" target="tINzB2LHruF0UwKxHcfC-27">
          <mxGeometry relative="1" as="geometry">
            <Array as="points">
              <mxPoint x="82" y="601" />
              <mxPoint x="82" y="329" />
            </Array>
          </mxGeometry>
        </mxCell>
        <mxCell id="tINzB2LHruF0UwKxHcfC-76" value="" style="curved=1;startArrow=block;startSize=16;startFill=0;endArrow=none;exitX=0.57;exitY=0;entryX=0.45;entryY=1;rounded=0;" edge="1" parent="1" source="tINzB2LHruF0UwKxHcfC-22" target="tINzB2LHruF0UwKxHcfC-29">
          <mxGeometry relative="1" as="geometry">
            <Array as="points">
              <mxPoint x="252" y="329" />
            </Array>
          </mxGeometry>
        </mxCell>
        <mxCell id="tINzB2LHruF0UwKxHcfC-77" value="" style="curved=1;startArrow=block;startSize=16;startFill=0;endArrow=none;exitX=0;exitY=0.41;entryX=0.63;entryY=1;rounded=0;" edge="1" parent="1" source="tINzB2LHruF0UwKxHcfC-15" target="tINzB2LHruF0UwKxHcfC-29">
          <mxGeometry relative="1" as="geometry">
            <Array as="points">
              <mxPoint x="313" y="329" />
            </Array>
          </mxGeometry>
        </mxCell>
        <mxCell id="tINzB2LHruF0UwKxHcfC-78" value="" style="curved=1;startArrow=block;startSize=16;startFill=0;endArrow=none;exitX=0;exitY=0;entryX=0.44;entryY=1;rounded=0;" edge="1" parent="1" source="tINzB2LHruF0UwKxHcfC-29" target="tINzB2LHruF0UwKxHcfC-31">
          <mxGeometry relative="1" as="geometry">
            <Array as="points">
              <mxPoint x="100" y="129" />
            </Array>
          </mxGeometry>
        </mxCell>
        <mxCell id="tINzB2LHruF0UwKxHcfC-79" value="" style="curved=1;startArrow=block;startSize=16;startFill=0;endArrow=none;exitX=0;exitY=0.34;entryX=0.64;entryY=1;rounded=0;" edge="1" parent="1" source="tINzB2LHruF0UwKxHcfC-42" target="tINzB2LHruF0UwKxHcfC-31">
          <mxGeometry relative="1" as="geometry">
            <Array as="points">
              <mxPoint x="164" y="329" />
              <mxPoint x="164" y="129" />
            </Array>
          </mxGeometry>
        </mxCell>
        <mxCell id="tINzB2LHruF0UwKxHcfC-80" value="" style="curved=1;startArrow=block;startSize=16;startFill=0;endArrow=none;exitX=0;exitY=0.47;entryX=0.8;entryY=1;rounded=0;" edge="1" parent="1" source="tINzB2LHruF0UwKxHcfC-39" target="tINzB2LHruF0UwKxHcfC-31">
          <mxGeometry relative="1" as="geometry">
            <Array as="points">
              <mxPoint x="217" y="129" />
            </Array>
          </mxGeometry>
        </mxCell>
        <mxCell id="tINzB2LHruF0UwKxHcfC-81" value="" style="curved=1;startArrow=block;startSize=16;startFill=0;endArrow=none;exitX=0.5;exitY=0;entryX=0;entryY=0.56;rounded=0;" edge="1" parent="1" source="tINzB2LHruF0UwKxHcfC-29" target="tINzB2LHruF0UwKxHcfC-33">
          <mxGeometry relative="1" as="geometry">
            <Array as="points">
              <mxPoint x="270" y="129" />
            </Array>
          </mxGeometry>
        </mxCell>
        <mxCell id="tINzB2LHruF0UwKxHcfC-82" value="" style="curved=1;startArrow=block;startSize=16;startFill=0;endArrow=none;exitX=0;exitY=0.46;entryX=0;entryY=0.56;rounded=0;" edge="1" parent="1" source="tINzB2LHruF0UwKxHcfC-35" target="tINzB2LHruF0UwKxHcfC-33">
          <mxGeometry relative="1" as="geometry">
            <Array as="points">
              <mxPoint x="323" y="129" />
            </Array>
          </mxGeometry>
        </mxCell>
        <mxCell id="tINzB2LHruF0UwKxHcfC-83" value="" style="curved=1;startArrow=block;startSize=16;startFill=0;endArrow=none;exitX=0;exitY=0.26;entryX=0;entryY=0.56;rounded=0;" edge="1" parent="1" source="tINzB2LHruF0UwKxHcfC-42" target="tINzB2LHruF0UwKxHcfC-33">
          <mxGeometry relative="1" as="geometry">
            <Array as="points">
              <mxPoint x="376" y="329" />
              <mxPoint x="376" y="129" />
            </Array>
          </mxGeometry>
        </mxCell>
        <mxCell id="tINzB2LHruF0UwKxHcfC-84" value="" style="curved=1;startArrow=block;startSize=16;startFill=0;endArrow=none;exitX=1;exitY=0.3;entryX=1;entryY=0.57;rounded=0;" edge="1" parent="1" source="tINzB2LHruF0UwKxHcfC-45" target="tINzB2LHruF0UwKxHcfC-33">
          <mxGeometry relative="1" as="geometry">
            <Array as="points">
              <mxPoint x="1877" y="329" />
              <mxPoint x="1877" y="129" />
            </Array>
          </mxGeometry>
        </mxCell>
        <mxCell id="tINzB2LHruF0UwKxHcfC-85" value="" style="curved=1;startArrow=block;startSize=16;startFill=0;endArrow=none;exitX=0.95;exitY=0;entryX=1;entryY=0.57;rounded=0;" edge="1" parent="1" source="tINzB2LHruF0UwKxHcfC-50" target="tINzB2LHruF0UwKxHcfC-33">
          <mxGeometry relative="1" as="geometry">
            <Array as="points">
              <mxPoint x="1897" y="329" />
              <mxPoint x="1897" y="129" />
            </Array>
          </mxGeometry>
        </mxCell>
        <mxCell id="tINzB2LHruF0UwKxHcfC-86" value="" style="curved=1;startArrow=block;startSize=16;startFill=0;endArrow=none;exitX=0.5;exitY=0;entryX=1;entryY=0.56;rounded=0;" edge="1" parent="1" source="tINzB2LHruF0UwKxHcfC-39" target="tINzB2LHruF0UwKxHcfC-33">
          <mxGeometry relative="1" as="geometry">
            <Array as="points">
              <mxPoint x="2000" y="129" />
            </Array>
          </mxGeometry>
        </mxCell>
        <mxCell id="tINzB2LHruF0UwKxHcfC-87" value="" style="curved=1;startArrow=block;startSize=16;startFill=0;endArrow=none;exitX=1;exitY=0.42;entryX=0.15;entryY=1;rounded=0;" edge="1" parent="1" source="tINzB2LHruF0UwKxHcfC-15" target="tINzB2LHruF0UwKxHcfC-54">
          <mxGeometry relative="1" as="geometry">
            <Array as="points">
              <mxPoint x="2102" y="329" />
              <mxPoint x="2102" y="129" />
            </Array>
          </mxGeometry>
        </mxCell>
        <mxCell id="tINzB2LHruF0UwKxHcfC-88" value="" style="curved=1;startArrow=block;startSize=16;startFill=0;endArrow=none;exitX=0.5;exitY=0;entryX=0.85;entryY=1;rounded=0;" edge="1" parent="1" source="tINzB2LHruF0UwKxHcfC-35" target="tINzB2LHruF0UwKxHcfC-54">
          <mxGeometry relative="1" as="geometry">
            <Array as="points">
              <mxPoint x="2251" y="129" />
            </Array>
          </mxGeometry>
        </mxCell>
        <mxCell id="tINzB2LHruF0UwKxHcfC-89" value="" style="curved=1;startArrow=block;startSize=16;startFill=0;endArrow=none;exitX=1;exitY=0.44;entryX=0.43;entryY=1;rounded=0;" edge="1" parent="1" source="tINzB2LHruF0UwKxHcfC-15" target="tINzB2LHruF0UwKxHcfC-56">
          <mxGeometry relative="1" as="geometry">
            <Array as="points">
              <mxPoint x="2401" y="329" />
              <mxPoint x="2401" y="129" />
            </Array>
          </mxGeometry>
        </mxCell>
        <mxCell id="tINzB2LHruF0UwKxHcfC-90" value="" style="curved=1;startArrow=block;startSize=16;startFill=0;endArrow=none;exitX=1;exitY=0.39;entryX=0.97;entryY=1;rounded=0;" edge="1" parent="1" source="tINzB2LHruF0UwKxHcfC-39" target="tINzB2LHruF0UwKxHcfC-56">
          <mxGeometry relative="1" as="geometry">
            <Array as="points">
              <mxPoint x="2495" y="129" />
            </Array>
          </mxGeometry>
        </mxCell>
        <mxCell id="tINzB2LHruF0UwKxHcfC-91" value="" style="curved=1;startArrow=block;startSize=16;startFill=0;endArrow=none;exitX=0;exitY=0.39;entryX=0.38;entryY=1;rounded=0;" edge="1" parent="1" source="tINzB2LHruF0UwKxHcfC-15" target="tINzB2LHruF0UwKxHcfC-58">
          <mxGeometry relative="1" as="geometry">
            <Array as="points">
              <mxPoint x="441" y="329" />
            </Array>
          </mxGeometry>
        </mxCell>
        <mxCell id="tINzB2LHruF0UwKxHcfC-92" value="" style="curved=1;startArrow=block;startSize=16;startFill=0;endArrow=none;exitX=0;exitY=0.04;entryX=0.75;entryY=1;rounded=0;" edge="1" parent="1" source="tINzB2LHruF0UwKxHcfC-42" target="tINzB2LHruF0UwKxHcfC-58">
          <mxGeometry relative="1" as="geometry">
            <Array as="points">
              <mxPoint x="573" y="329" />
            </Array>
          </mxGeometry>
        </mxCell>
        <mxCell id="tINzB2LHruF0UwKxHcfC-93" value="" style="curved=1;startArrow=block;startSize=16;startFill=0;endArrow=none;exitX=0;exitY=0.36;entryX=0.24;entryY=1;rounded=0;" edge="1" parent="1" source="tINzB2LHruF0UwKxHcfC-15" target="tINzB2LHruF0UwKxHcfC-60">
          <mxGeometry relative="1" as="geometry">
            <Array as="points">
              <mxPoint x="593" y="329" />
            </Array>
          </mxGeometry>
        </mxCell>
        <mxCell id="tINzB2LHruF0UwKxHcfC-94" value="" style="curved=1;startArrow=block;startSize=16;startFill=0;endArrow=none;exitX=0;exitY=0.38;entryX=0.75;entryY=1;rounded=0;" edge="1" parent="1" source="tINzB2LHruF0UwKxHcfC-50" target="tINzB2LHruF0UwKxHcfC-60">
          <mxGeometry relative="1" as="geometry">
            <Array as="points">
              <mxPoint x="765" y="329" />
            </Array>
          </mxGeometry>
        </mxCell>
        <mxCell id="tINzB2LHruF0UwKxHcfC-95" value="" style="curved=1;startArrow=block;startSize=16;startFill=0;endArrow=none;exitX=0;exitY=0.29;entryX=0.24;entryY=1;rounded=0;" edge="1" parent="1" source="tINzB2LHruF0UwKxHcfC-15" target="tINzB2LHruF0UwKxHcfC-62">
          <mxGeometry relative="1" as="geometry">
            <Array as="points">
              <mxPoint x="785" y="329" />
            </Array>
          </mxGeometry>
        </mxCell>
        <mxCell id="tINzB2LHruF0UwKxHcfC-96" value="" style="curved=1;startArrow=block;startSize=16;startFill=0;endArrow=none;exitX=0;exitY=0.3;entryX=0.8;entryY=1;rounded=0;" edge="1" parent="1" source="tINzB2LHruF0UwKxHcfC-45" target="tINzB2LHruF0UwKxHcfC-62">
          <mxGeometry relative="1" as="geometry">
            <Array as="points">
              <mxPoint x="969" y="329" />
            </Array>
          </mxGeometry>
        </mxCell>
        <mxCell id="tINzB2LHruF0UwKxHcfC-97" value="" style="curved=1;startArrow=block;startSize=16;startFill=0;endArrow=none;exitX=1;exitY=0.45;entryX=0.18;entryY=1;rounded=0;" edge="1" parent="1" source="tINzB2LHruF0UwKxHcfC-15" target="tINzB2LHruF0UwKxHcfC-64">
          <mxGeometry relative="1" as="geometry">
            <Array as="points">
              <mxPoint x="2515" y="329" />
              <mxPoint x="2515" y="129" />
            </Array>
          </mxGeometry>
        </mxCell>
        <mxCell id="tINzB2LHruF0UwKxHcfC-98" value="" style="curved=1;startArrow=block;startSize=16;startFill=0;endArrow=none;exitX=1;exitY=0.4;entryX=0.25;entryY=1;rounded=0;" edge="1" parent="1" source="tINzB2LHruF0UwKxHcfC-39" target="tINzB2LHruF0UwKxHcfC-64">
          <mxGeometry relative="1" as="geometry">
            <Array as="points">
              <mxPoint x="2535" y="129" />
            </Array>
          </mxGeometry>
        </mxCell>
        <mxCell id="tINzB2LHruF0UwKxHcfC-99" value="" style="curved=1;startArrow=block;startSize=16;startFill=0;endArrow=none;exitX=1;exitY=0.29;entryX=0.58;entryY=1;rounded=0;" edge="1" parent="1" source="tINzB2LHruF0UwKxHcfC-35" target="tINzB2LHruF0UwKxHcfC-64">
          <mxGeometry relative="1" as="geometry">
            <Array as="points">
              <mxPoint x="2618" y="129" />
            </Array>
          </mxGeometry>
        </mxCell>
        <mxCell id="tINzB2LHruF0UwKxHcfC-100" value="" style="curved=1;startArrow=block;startSize=16;startFill=0;endArrow=none;exitX=0.02;exitY=0;entryX=0.29;entryY=1;rounded=0;" edge="1" parent="1" source="tINzB2LHruF0UwKxHcfC-15" target="tINzB2LHruF0UwKxHcfC-66">
          <mxGeometry relative="1" as="geometry">
            <Array as="points">
              <mxPoint x="989" y="329" />
            </Array>
          </mxGeometry>
        </mxCell>
        <mxCell id="tINzB2LHruF0UwKxHcfC-101" value="" style="curved=1;startArrow=block;startSize=16;startFill=0;endArrow=none;exitX=1;exitY=0.22;entryX=0.59;entryY=1;rounded=0;" edge="1" parent="1" source="tINzB2LHruF0UwKxHcfC-42" target="tINzB2LHruF0UwKxHcfC-66">
          <mxGeometry relative="1" as="geometry">
            <Array as="points">
              <mxPoint x="1133" y="329" />
            </Array>
          </mxGeometry>
        </mxCell>
        <mxCell id="tINzB2LHruF0UwKxHcfC-102" value="" style="curved=1;startArrow=block;startSize=16;startFill=0;endArrow=none;exitX=0;exitY=0;entryX=0.8;entryY=1;rounded=0;" edge="1" parent="1" source="tINzB2LHruF0UwKxHcfC-45" target="tINzB2LHruF0UwKxHcfC-66">
          <mxGeometry relative="1" as="geometry">
            <Array as="points">
              <mxPoint x="1233" y="329" />
            </Array>
          </mxGeometry>
        </mxCell>
        <mxCell id="tINzB2LHruF0UwKxHcfC-103" value="" style="curved=1;startArrow=block;startSize=16;startFill=0;endArrow=none;exitX=1;exitY=0.03;entryX=0.32;entryY=1;rounded=0;" edge="1" parent="1" source="tINzB2LHruF0UwKxHcfC-15" target="tINzB2LHruF0UwKxHcfC-68">
          <mxGeometry relative="1" as="geometry">
            <Array as="points">
              <mxPoint x="1285" y="329" />
            </Array>
          </mxGeometry>
        </mxCell>
        <mxCell id="tINzB2LHruF0UwKxHcfC-104" value="" style="curved=1;startArrow=block;startSize=16;startFill=0;endArrow=none;exitX=1;exitY=0.35;entryX=0.59;entryY=1;rounded=0;" edge="1" parent="1" source="tINzB2LHruF0UwKxHcfC-42" target="tINzB2LHruF0UwKxHcfC-68">
          <mxGeometry relative="1" as="geometry">
            <Array as="points">
              <mxPoint x="1416" y="329" />
            </Array>
          </mxGeometry>
        </mxCell>
        <mxCell id="tINzB2LHruF0UwKxHcfC-105" value="" style="curved=1;startArrow=block;startSize=16;startFill=0;endArrow=none;exitX=0.04;exitY=0;entryX=0.77;entryY=1;rounded=0;" edge="1" parent="1" source="tINzB2LHruF0UwKxHcfC-50" target="tINzB2LHruF0UwKxHcfC-68">
          <mxGeometry relative="1" as="geometry">
            <Array as="points">
              <mxPoint x="1502" y="329" />
            </Array>
          </mxGeometry>
        </mxCell>
        <mxCell id="tINzB2LHruF0UwKxHcfC-106" value="" style="curved=1;startArrow=block;startSize=16;startFill=0;endArrow=none;exitX=1;exitY=0.31;entryX=0.19;entryY=1;rounded=0;" edge="1" parent="1" source="tINzB2LHruF0UwKxHcfC-15" target="tINzB2LHruF0UwKxHcfC-70">
          <mxGeometry relative="1" as="geometry">
            <Array as="points">
              <mxPoint x="1522" y="329" />
            </Array>
          </mxGeometry>
        </mxCell>
        <mxCell id="tINzB2LHruF0UwKxHcfC-107" value="" style="curved=1;startArrow=block;startSize=16;startFill=0;endArrow=none;exitX=1;exitY=0.38;entryX=0.29;entryY=1;rounded=0;" edge="1" parent="1" source="tINzB2LHruF0UwKxHcfC-42" target="tINzB2LHruF0UwKxHcfC-70">
          <mxGeometry relative="1" as="geometry">
            <Array as="points">
              <mxPoint x="1585" y="329" />
            </Array>
          </mxGeometry>
        </mxCell>
        <mxCell id="tINzB2LHruF0UwKxHcfC-108" value="" style="curved=1;startArrow=block;startSize=16;startFill=0;endArrow=none;exitX=1;exitY=0.08;entryX=0.37;entryY=1;rounded=0;" edge="1" parent="1" source="tINzB2LHruF0UwKxHcfC-45" target="tINzB2LHruF0UwKxHcfC-70">
          <mxGeometry relative="1" as="geometry">
            <Array as="points">
              <mxPoint x="1632" y="329" />
            </Array>
          </mxGeometry>
        </mxCell>
        <mxCell id="tINzB2LHruF0UwKxHcfC-109" value="" style="curved=1;startArrow=block;startSize=16;startFill=0;endArrow=none;exitX=0.69;exitY=0;entryX=0.62;entryY=1;rounded=0;" edge="1" parent="1" source="tINzB2LHruF0UwKxHcfC-50" target="tINzB2LHruF0UwKxHcfC-70">
          <mxGeometry relative="1" as="geometry">
            <Array as="points">
              <mxPoint x="1785" y="329" />
            </Array>
          </mxGeometry>
        </mxCell>
      </root>
    </mxGraphModel>
  </diagram>
</mxfile>
